<svg xmlns="http://www.w3.org/2000/svg" width="24" height="24" viewBox="0 0 24 24" fill="none" stroke="currentColor" stroke-width="2" stroke-linecap="round" stroke-linejoin="round">
  <!-- Funnel (filter) -->
  <path d="M22 3H2l9 12v6l4 2v-8l7-12z"/>
  <!-- Plus sign (add group) -->
  <line x1="18" y1="6" x2="18" y2="12"/>
  <line x1="15" y1="9" x2="21" y2="9"/>
</svg>
<svg xmlns="http://www.w3.org/2000/svg" width="24" height="24" viewBox="0 0 24 24" fill="none" stroke="currentColor" stroke-width="2" stroke-linecap="round" stroke-linejoin="round">
  <!-- Folder icon -->
  <path d="M22 19a2 2 0 0 1-2 2H4a2 2 0 0 1-2-2V5a2 2 0 0 1 2-2h5l2 3h9a2 2 0 0 1 2 2z" fill="none" stroke="#5c6bc0"/>
  <!-- Plus sign -->
  <line x1="12" y1="11" x2="12" y2="17" stroke="#4caf50" stroke-width="2"/>
  <line x1="9" y1="14" x2="15" y2="14" stroke="#4caf50" stroke-width="2"/>
</svg>
